<?xml version="1.0" encoding="UTF-8"?>
<!DOCTYPE svg PUBLIC "-//W3C//DTD SVG 1.1//EN" "http://www.w3.org/Graphics/SVG/1.1/DTD/svg11.dtd">
<svg xmlns="http://www.w3.org/2000/svg" version="1.1" width="3822px" height="4189px" style="shape-rendering:geometricPrecision; text-rendering:geometricPrecision; image-rendering:optimizeQuality; fill-rule:evenodd; clip-rule:evenodd" xmlns:xlink="http://www.w3.org/1999/xlink">
<g><path style="opacity:1" fill="#fefefe" d="M -0.5,-0.5 C 1273.5,-0.5 2547.5,-0.5 3821.5,-0.5C 3821.5,1395.83 3821.5,2792.17 3821.5,4188.5C 2547.5,4188.5 1273.5,4188.5 -0.5,4188.5C -0.5,2792.17 -0.5,1395.83 -0.5,-0.5 Z"/></g>
<g><path style="opacity:1" fill="#509fdb" d="M 3237.5,1407.5 C 3230.55,1411.98 3223.22,1415.98 3215.5,1419.5C 3214.7,1419.96 3214.37,1420.62 3214.5,1421.5C 2710.36,1130.6 2206.36,839.431 1702.5,548C 1687.55,539.569 1671.55,535.903 1654.5,537C 1651.08,537.521 1647.75,538.355 1644.5,539.5C 1643.89,539.376 1643.56,539.043 1643.5,538.5C 1653.3,532.598 1663.64,527.765 1674.5,524C 1693.72,521.628 1711.72,525.294 1728.5,535C 2231.56,825.86 2734.56,1116.69 3237.5,1407.5 Z"/></g>
<g><path style="opacity:1" fill="#d0ebfe" d="M 3214.5,1421.5 C 3235.7,1434.87 3253.54,1451.87 3268,1472.5C 3296.09,1512.11 3312.76,1556.11 3318,1604.5C 3318.67,2011.17 3318.67,2417.83 3318,2824.5C 3316.36,2844.77 3309.69,2863.1 3298,2879.5C 3294.27,2883.4 3290.44,2887.06 3286.5,2890.5C 3283.99,2892.92 3280.99,2894.59 3277.5,2895.5C 3273.88,2896.31 3270.55,2897.65 3267.5,2899.5C 3255.15,2903.28 3242.81,2903.45 3230.5,2900C 3251.36,2909.86 3265.53,2925.69 3273,2947.5C 3274.12,2953.1 3274.79,2958.77 3275,2964.5C 3275.83,2990 3275.66,3015.34 3274.5,3040.5C 3274.67,3016.83 3274.5,2993.16 3274,2969.5C 3271.51,2984.14 3265.51,2997.14 3256,3008.5C 3244.62,3020.89 3231.79,3031.39 3217.5,3040C 2919.91,3211.27 2622.57,3382.93 2325.5,3555C 2261.25,3588.1 2193.92,3596.43 2123.5,3580C 2109.94,3576.05 2096.94,3570.72 2084.5,3564C 1567.17,3265.33 1049.83,2966.67 532.5,2668C 517.937,2660.44 504.77,2650.94 493,2639.5C 485.074,2630.65 480.074,2620.31 478,2608.5C 477.5,2632.5 477.333,2656.5 477.5,2680.5C 476.337,2655.34 476.17,2630 477,2604.5C 476.284,2593.31 478.284,2582.64 483,2572.5C 492.268,2555.56 504.768,2541.39 520.5,2530C 822.468,2355.35 1124.47,2180.68 1426.5,2006C 1486.21,1975.08 1549.21,1965.75 1615.5,1978C 1625.59,1980.69 1635.59,1983.69 1645.5,1987C 1655.88,1991.2 1665.88,1995.86 1675.5,2001C 1628.48,1955.46 1601.31,1899.96 1594,1834.5C 1593.33,1427.5 1593.33,1020.5 1594,613.5C 1595.26,590.155 1603.76,569.989 1619.5,553C 1627.03,547.401 1635.03,542.568 1643.5,538.5C 1643.56,539.043 1643.89,539.376 1644.5,539.5C 1647.75,538.355 1651.08,537.521 1654.5,537C 1671.55,535.903 1687.55,539.569 1702.5,548C 2206.36,839.431 2710.36,1130.6 3214.5,1421.5 Z"/></g>
<g><path style="opacity:1" fill="#02336e" d="M 1664.5,607.5 C 1669.6,607.175 1674.6,607.675 1679.5,609C 2176.5,896 2673.5,1183 3170.5,1470C 3215.54,1494.74 3242.37,1532.57 3251,1583.5C 3252.44,1591.45 3253.44,1599.45 3254,1607.5C 3254.67,2010.5 3254.67,2413.5 3254,2816.5C 3249.93,2829.46 3241.1,2834.63 3227.5,2832C 2731.5,2545.67 2235.5,2259.33 1739.5,1973C 1703.87,1952.69 1679.04,1923.19 1665,1884.5C 1658.11,1866.8 1654.11,1848.47 1653,1829.5C 1652.33,1426.5 1652.33,1023.5 1653,620.5C 1655.27,614.73 1659.11,610.397 1664.5,607.5 Z"/></g>
<g><path style="opacity:1" fill="#4e9edb" d="M 2107.5,1166.5 C 2135.81,1183.32 2164.81,1199.16 2194.5,1214C 2242.58,1237.02 2293.25,1250.35 2346.5,1254C 2372.42,1255.11 2398.08,1253.11 2423.5,1248C 2436.92,1244.31 2450.26,1240.65 2463.5,1237C 2469.13,1239.4 2473.96,1242.9 2478,1247.5C 2519.02,1308.81 2564.85,1366.48 2615.5,1420.5C 2607.04,1428.46 2598.71,1436.62 2590.5,1445C 2589.83,1445.67 2589.17,1445.67 2588.5,1445C 2538.42,1393.23 2493.25,1337.73 2453,1278.5C 2403.84,1292.22 2354.01,1295.05 2303.5,1287C 2248.2,1277.23 2196.03,1258.73 2147,1231.5C 2147.82,1296.51 2149.32,1361.51 2151.5,1426.5C 2138.85,1424.86 2126.35,1422.53 2114,1419.5C 2111.72,1335.17 2109.55,1250.83 2107.5,1166.5 Z"/></g>
<g><path style="opacity:1" fill="#2a74ac" d="M 3237.5,1407.5 C 3259.97,1421.13 3278.8,1438.8 3294,1460.5C 3320.96,1499.36 3337.29,1542.36 3343,1589.5C 3343.67,1997.17 3343.67,2404.83 3343,2812.5C 3341.13,2831.01 3335.13,2848.01 3325,2863.5C 3321.5,2868.33 3317.33,2872.5 3312.5,2876C 3303.94,2881.11 3295.27,2885.94 3286.5,2890.5C 3290.44,2887.06 3294.27,2883.4 3298,2879.5C 3309.69,2863.1 3316.36,2844.77 3318,2824.5C 3318.67,2417.83 3318.67,2011.17 3318,1604.5C 3312.76,1556.11 3296.09,1512.11 3268,1472.5C 3253.54,1451.87 3235.7,1434.87 3214.5,1421.5C 3214.37,1420.62 3214.7,1419.96 3215.5,1419.5C 3223.22,1415.98 3230.55,1411.98 3237.5,1407.5 Z"/></g>
<g><path style="opacity:1" fill="#0fb9b8" d="M 2660.5,1419.5 C 2730.18,1476.7 2799.18,1534.87 2867.5,1594C 2691.32,1779.01 2514.99,1963.84 2338.5,2148.5C 2251.23,1947.63 2164.23,1746.63 2077.5,1545.5C 2078.33,1545.17 2079.17,1544.83 2080,1544.5C 2134.52,1554.57 2188.85,1565.24 2243,1576.5C 2287.47,1683.58 2332.14,1790.58 2377,1897.5C 2471.73,1738.28 2566.23,1578.95 2660.5,1419.5 Z"/></g>
<g><path style="opacity:1" fill="#4e9eda" d="M 2806.5,1769.5 C 2807.83,1774.96 2808.5,1780.79 2808.5,1787C 2806.53,1839.48 2799.69,1891.31 2788,1942.5C 2777.07,1989.32 2758.4,2032.66 2732,2072.5C 2705.51,2107.33 2673.67,2136.17 2636.5,2159C 2617.76,2170.07 2598.76,2180.73 2579.5,2191C 2543.79,2208.52 2508.46,2226.52 2473.5,2245C 2467.14,2245.83 2460.81,2245.66 2454.5,2244.5C 2448.05,2237.09 2441.71,2229.59 2435.5,2222C 2483.44,2197.7 2531.44,2173.36 2579.5,2149C 2611,2132.81 2640.33,2113.48 2667.5,2091C 2696.37,2064.43 2718.21,2032.93 2733,1996.5C 2748.9,1953.46 2759.56,1909.13 2765,1863.5C 2767.33,1842.87 2769.33,1822.2 2771,1801.5C 2783.03,1790.97 2794.86,1780.3 2806.5,1769.5 Z"/></g>
<g><path style="opacity:1" fill="#52a0db" d="M 1555.5,2095.5 C 1561.08,2100.89 1567.41,2105.39 1574.5,2109C 1605,2126.08 1635.33,2143.41 1665.5,2161C 1680.08,2165.28 1694.08,2163.95 1707.5,2157C 1709.35,2155.32 1711.02,2153.48 1712.5,2151.5C 1714.36,2156.96 1713.36,2161.79 1709.5,2166C 1695.37,2175.17 1680.37,2176.83 1664.5,2171C 1629.83,2151 1595.17,2131 1560.5,2111C 1556.08,2106.78 1554.41,2101.61 1555.5,2095.5 Z"/></g>
<g><path style="opacity:1" fill="#51a0db" d="M 1452.5,2156.5 C 1454.93,2159.44 1457.6,2162.27 1460.5,2165C 1476.7,2174.27 1493.04,2183.27 1509.5,2192C 1525.19,2196.49 1540.19,2194.82 1554.5,2187C 1568.75,2178.63 1582.92,2170.13 1597,2161.5C 1598,2159.83 1599,2158.17 1600,2156.5C 1602.45,2164.16 1600.28,2170.33 1593.5,2175C 1577.76,2184.4 1561.76,2193.4 1545.5,2202C 1532.82,2205.31 1520.15,2205.31 1507.5,2202C 1491.5,2193 1475.5,2184 1459.5,2175C 1452.89,2170.34 1450.56,2164.17 1452.5,2156.5 Z"/></g>
<g><path style="opacity:1" fill="#51a0db" d="M 1720.5,2190.5 C 1722.31,2193.14 1724.64,2195.31 1727.5,2197C 1745.04,2207.27 1762.7,2217.27 1780.5,2227C 1793.04,2230.63 1805.37,2229.96 1817.5,2225C 1820.91,2222.97 1823.91,2220.47 1826.5,2217.5C 1828.89,2224.55 1826.89,2230.05 1820.5,2234C 1816.46,2236.43 1812.13,2238.09 1807.5,2239C 1798.77,2239.88 1790.1,2239.54 1781.5,2238C 1763.04,2227.93 1744.7,2217.6 1726.5,2207C 1720.64,2202.81 1718.64,2197.31 1720.5,2190.5 Z"/></g>
<g><path style="opacity:1" fill="#52a0db" d="M 1346.5,2217.5 C 1350.14,2222.5 1354.8,2226.33 1360.5,2229C 1388.33,2244.75 1416,2260.75 1443.5,2277C 1458.9,2285.28 1474.9,2286.61 1491.5,2281C 1506.83,2272.33 1522.17,2263.67 1537.5,2255C 1540.67,2253.17 1543.17,2250.67 1545,2247.5C 1546.54,2249.95 1546.87,2252.62 1546,2255.5C 1544.26,2259.24 1541.76,2262.41 1538.5,2265C 1523.66,2273.92 1508.66,2282.59 1493.5,2291C 1482.08,2294.39 1470.42,2295.39 1458.5,2294C 1452.93,2292.22 1447.6,2289.88 1442.5,2287C 1411.26,2269.46 1380.42,2251.3 1350,2232.5C 1346.88,2228.03 1345.71,2223.03 1346.5,2217.5 Z"/></g>
<g><path style="opacity:1" fill="#52a0db" d="M 1565.5,2222.5 C 1568.25,2224.75 1570.92,2227.25 1573.5,2230C 1588.66,2238.41 1603.66,2247.08 1618.5,2256C 1633.97,2260.94 1649.3,2260.61 1664.5,2255C 1677.58,2246.93 1690.91,2239.27 1704.5,2232C 1708.33,2229.5 1711.5,2226.33 1714,2222.5C 1716.14,2229.43 1714.3,2235.27 1708.5,2240C 1693,2249.25 1677.33,2258.25 1661.5,2267C 1647.49,2271.6 1633.49,2271.6 1619.5,2267C 1604.83,2258.67 1590.17,2250.33 1575.5,2242C 1567.79,2237.75 1564.46,2231.25 1565.5,2222.5 Z"/></g>
<g><path style="opacity:1" fill="#51a0db" d="M 1834.5,2256.5 C 1838.03,2260.18 1842.03,2263.35 1846.5,2266C 1859.17,2273.33 1871.83,2280.67 1884.5,2288C 1901,2297.57 1917.66,2297.91 1934.5,2289C 1936.35,2286.98 1938.35,2285.15 1940.5,2283.5C 1942.45,2289.79 1940.78,2294.95 1935.5,2299C 1918,2307.99 1900.66,2307.66 1883.5,2298C 1869.33,2289.41 1855,2281.08 1840.5,2273C 1834.63,2268.78 1832.63,2263.28 1834.5,2256.5 Z"/></g>
<g><path style="opacity:1" fill="#52a0db" d="M 1679.5,2288.5 C 1682.25,2290.75 1684.92,2293.25 1687.5,2296C 1703.5,2305 1719.5,2314 1735.5,2323C 1748.93,2326.57 1762.26,2326.23 1775.5,2322C 1790.17,2313.67 1804.83,2305.33 1819.5,2297C 1823,2294.83 1825.83,2292 1828,2288.5C 1830,2294.84 1828.5,2300.34 1823.5,2305C 1807.42,2314.73 1791.09,2324.07 1774.5,2333C 1761.92,2337.13 1749.25,2337.47 1736.5,2334C 1719.34,2324.59 1702.34,2314.92 1685.5,2305C 1680.27,2300.71 1678.27,2295.21 1679.5,2288.5 Z"/></g>
<g><path style="opacity:1" fill="#52a0db" d="M 1239.5,2279.5 C 1249.44,2286.48 1259.77,2292.98 1270.5,2299C 1309.83,2321.67 1349.17,2344.33 1388.5,2367C 1404.15,2374.95 1420.15,2375.61 1436.5,2369C 1451.34,2360.08 1466.34,2351.41 1481.5,2343C 1484.67,2341.17 1487.17,2338.67 1489,2335.5C 1490.46,2338.37 1490.79,2341.37 1490,2344.5C 1487.87,2347.63 1485.37,2350.46 1482.5,2353C 1466,2362.08 1449.67,2371.41 1433.5,2381C 1419.7,2385.99 1406.03,2385.66 1392.5,2380C 1343.66,2351.41 1294.66,2323.08 1245.5,2295C 1240.58,2290.98 1238.58,2285.82 1239.5,2279.5 Z"/></g>
<g><path style="opacity:1" fill="#52a0db" d="M 1510.5,2312.5 C 1513.25,2314.75 1515.92,2317.25 1518.5,2320C 1533,2328.08 1547.33,2336.41 1561.5,2345C 1578.28,2352.36 1594.94,2352.02 1611.5,2344C 1624.17,2336.67 1636.83,2329.33 1649.5,2322C 1653.33,2319.5 1656.5,2316.33 1659,2312.5C 1661.59,2320.19 1659.42,2326.36 1652.5,2331C 1639.17,2338.67 1625.83,2346.33 1612.5,2354C 1600.2,2360.18 1587.2,2362.18 1573.5,2360C 1570.41,2359.29 1567.41,2358.29 1564.5,2357C 1549.83,2348.67 1535.17,2340.33 1520.5,2332C 1512.8,2327.77 1509.47,2321.27 1510.5,2312.5 Z"/></g>
<g><path style="opacity:1" fill="#52a0db" d="M 1948.5,2322.5 C 1952.6,2326.72 1957.27,2330.22 1962.5,2333C 1976.09,2340.27 1989.42,2347.93 2002.5,2356C 2005.83,2357.33 2009.17,2358.67 2012.5,2360C 2028.44,2363.56 2042.44,2360.06 2054.5,2349.5C 2056.51,2355.24 2055.18,2360.08 2050.5,2364C 2038.02,2371.37 2024.69,2373.37 2010.5,2370C 1991.54,2360.19 1972.88,2349.86 1954.5,2339C 1948.8,2334.74 1946.8,2329.24 1948.5,2322.5 Z"/></g>
<g><path style="opacity:1" fill="#51a0db" d="M 1133.5,2340.5 C 1136.2,2344.88 1139.87,2348.38 1144.5,2351C 1213.5,2390.67 1282.5,2430.33 1351.5,2470C 1364.82,2474.62 1378.15,2474.62 1391.5,2470C 1407.76,2461.4 1423.76,2452.4 1439.5,2443C 1441.71,2441.13 1443.54,2438.96 1445,2436.5C 1446.81,2439.74 1446.81,2443.07 1445,2446.5C 1442.87,2449.63 1440.37,2452.46 1437.5,2455C 1423.5,2463 1409.5,2471 1395.5,2479C 1380.58,2484.47 1365.58,2484.81 1350.5,2480C 1281.5,2440.33 1212.5,2400.67 1143.5,2361C 1134.89,2356.62 1131.56,2349.78 1133.5,2340.5 Z"/></g>
<g><path style="opacity:1" fill="#52a0db" d="M 1793.5,2354.5 C 1796.62,2357.45 1799.96,2360.28 1803.5,2363C 1818.17,2371.33 1832.83,2379.67 1847.5,2388C 1861.17,2392.67 1874.83,2392.67 1888.5,2388C 1905.09,2379.07 1921.42,2369.73 1937.5,2360C 1938.88,2358.07 1940.38,2356.24 1942,2354.5C 1944.17,2361.96 1942.01,2367.8 1935.5,2372C 1920.66,2380.92 1905.66,2389.59 1890.5,2398C 1876.63,2403.56 1862.63,2403.9 1848.5,2399C 1830.76,2389.72 1813.59,2379.55 1797,2368.5C 1793.92,2364.37 1792.76,2359.7 1793.5,2354.5 Z"/></g>
<g><path style="opacity:1" fill="#52a0db" d="M 1624.5,2378.5 C 1627.25,2380.75 1629.92,2383.25 1632.5,2386C 1648.24,2395.4 1664.24,2404.4 1680.5,2413C 1697.22,2417.7 1713.22,2416.03 1728.5,2408C 1741.17,2400.67 1753.83,2393.33 1766.5,2386C 1769.04,2383.8 1771.21,2381.3 1773,2378.5C 1775.14,2385.43 1773.3,2391.27 1767.5,2396C 1752.34,2404.41 1737.34,2413.08 1722.5,2422C 1707.94,2427.49 1693.27,2427.82 1678.5,2423C 1660.75,2413.38 1643.58,2402.88 1627,2391.5C 1624.83,2387.45 1623.99,2383.12 1624.5,2378.5 Z"/></g>
<g><path style="opacity:1" fill="#53a1db" d="M 2061.5,2388.5 C 2064.23,2389.71 2066.56,2391.55 2068.5,2394C 2083,2402.08 2097.33,2410.41 2111.5,2419C 2124.28,2426.61 2137.95,2428.61 2152.5,2425C 2159.01,2423.34 2164.17,2419.84 2168,2414.5C 2170.61,2421.33 2168.78,2426.83 2162.5,2431C 2147.05,2439.28 2131.38,2439.62 2115.5,2432C 2099.5,2422.67 2083.5,2413.33 2067.5,2404C 2062.85,2399.9 2060.85,2394.73 2061.5,2388.5 Z"/></g>
<g><path style="opacity:1" fill="#51a0db" d="M 1452.5,2401.5 C 1454.96,2403.46 1457.3,2405.63 1459.5,2408C 1474.66,2416.41 1489.66,2425.08 1504.5,2434C 1520.98,2441.55 1537.32,2441.21 1553.5,2433C 1567.67,2424.41 1582,2416.08 1596.5,2408C 1599,2406.17 1601.17,2404 1603,2401.5C 1605.38,2408.27 1603.55,2413.77 1597.5,2418C 1579.79,2428.52 1561.79,2438.52 1543.5,2448C 1532.83,2451.33 1522.17,2451.33 1511.5,2448C 1493.67,2438.25 1476,2428.25 1458.5,2418C 1452.8,2413.74 1450.8,2408.24 1452.5,2401.5 Z"/></g>
<g><path style="opacity:1" fill="#51a0db" d="M 1907.5,2420.5 C 1925.41,2433.47 1944.41,2444.97 1964.5,2455C 1978.07,2458.76 1991.41,2458.1 2004.5,2453C 2019.17,2444.67 2033.83,2436.33 2048.5,2428C 2051,2425.5 2053.5,2423 2056,2420.5C 2057.72,2427.59 2055.56,2433.42 2049.5,2438C 2036.83,2445.33 2024.17,2452.67 2011.5,2460C 1998.38,2467.19 1984.38,2469.52 1969.5,2467C 1966.41,2466.29 1963.41,2465.29 1960.5,2464C 1946.5,2456 1932.5,2448 1918.5,2440C 1910.34,2436.01 1906.67,2429.51 1907.5,2420.5 Z"/></g>
<g><path style="opacity:1" fill="#51a0db" d="M 1027.5,2402.5 C 1029.92,2404.41 1032.25,2406.58 1034.5,2409C 1065.66,2426.75 1096.66,2444.75 1127.5,2463C 1143.32,2469.97 1159.32,2470.31 1175.5,2464C 1191.09,2455.4 1206.43,2446.4 1221.5,2437C 1222.88,2435.07 1224.38,2433.24 1226,2431.5C 1226.67,2434.83 1226.67,2438.17 1226,2441.5C 1223.87,2444.63 1221.37,2447.46 1218.5,2450C 1203.83,2458.33 1189.17,2466.67 1174.5,2475C 1171.23,2476.2 1167.89,2477.2 1164.5,2478C 1156.17,2478.67 1147.83,2478.67 1139.5,2478C 1135.02,2476.73 1130.69,2475.06 1126.5,2473C 1096.5,2455.67 1066.5,2438.33 1036.5,2421C 1029.4,2416.9 1026.4,2410.73 1027.5,2402.5 Z"/></g>
<g><path style="opacity:1" fill="#52a0db" d="M 1738.5,2444.5 C 1741.62,2447.45 1744.96,2450.28 1748.5,2453C 1761.17,2460.33 1773.83,2467.67 1786.5,2475C 1802.8,2482.95 1819.47,2483.62 1836.5,2477C 1851.66,2468.59 1866.66,2459.92 1881.5,2451C 1883.71,2449.13 1885.54,2446.96 1887,2444.5C 1887.85,2448.63 1887.52,2452.63 1886,2456.5C 1883.83,2458.67 1881.67,2460.83 1879.5,2463C 1864.83,2471.33 1850.17,2479.67 1835.5,2488C 1821.62,2493.58 1807.62,2493.91 1793.5,2489C 1775.76,2479.72 1758.59,2469.55 1742,2458.5C 1738.92,2454.37 1737.76,2449.7 1738.5,2444.5 Z"/></g>
<g><path style="opacity:1" fill="#52a0db" d="M 1565.5,2467.5 C 1568.94,2469.76 1572.27,2472.26 1575.5,2475C 1590.66,2483.41 1605.66,2492.08 1620.5,2501C 1637.8,2507.93 1654.47,2506.59 1670.5,2497C 1683.17,2489.67 1695.83,2482.33 1708.5,2475C 1711.63,2472.87 1714.46,2470.37 1717,2467.5C 1718.71,2473.69 1717.21,2478.86 1712.5,2483C 1699.34,2490.41 1686.34,2498.08 1673.5,2506C 1657.13,2516.25 1639.8,2518.25 1621.5,2512C 1605.83,2503 1590.17,2494 1574.5,2485C 1567.67,2481.18 1564.67,2475.35 1565.5,2467.5 Z"/></g>
<g><path style="opacity:1" fill="#51a0db" d="M 2176.5,2453.5 C 2178.64,2456.47 2181.31,2458.97 2184.5,2461C 2201.34,2470.92 2218.34,2480.59 2235.5,2490C 2249.24,2494.11 2262.58,2493.11 2275.5,2487C 2277.67,2484.83 2279.83,2482.67 2282,2480.5C 2284.52,2486.67 2283.02,2491.84 2277.5,2496C 2273.2,2498.77 2268.53,2500.77 2263.5,2502C 2252.58,2503.35 2241.91,2502.35 2231.5,2499C 2214.66,2488.75 2197.66,2478.75 2180.5,2469C 2175.98,2464.61 2174.65,2459.45 2176.5,2453.5 Z"/></g>
<g><path style="opacity:1" fill="#52a0db" d="M 1411.5,2501.5 C 1414.69,2505.85 1418.69,2509.35 1423.5,2512C 1438.55,2520.86 1453.88,2529.19 1469.5,2537C 1482.33,2539.42 1495,2538.75 1507.5,2535C 1522.17,2526.67 1536.83,2518.33 1551.5,2510C 1554.37,2507.46 1556.87,2504.63 1559,2501.5C 1561.45,2509.16 1559.28,2515.33 1552.5,2520C 1540.24,2526.6 1528.24,2533.6 1516.5,2541C 1499.91,2550.18 1482.57,2551.85 1464.5,2546C 1448.5,2536.67 1432.5,2527.33 1416.5,2518C 1412.01,2513.43 1410.35,2507.93 1411.5,2501.5 Z"/></g>
<g><path style="opacity:1" fill="#52a0db" d="M 2021.5,2486.5 C 2024.27,2489.08 2027.27,2491.58 2030.5,2494C 2045.83,2502.67 2061.17,2511.33 2076.5,2520C 2089.49,2524.67 2102.49,2524.67 2115.5,2520C 2131.76,2511.4 2147.76,2502.4 2163.5,2493C 2165.68,2490.98 2167.68,2488.82 2169.5,2486.5C 2171.75,2493.18 2170.08,2498.68 2164.5,2503C 2150.67,2510.75 2137,2518.75 2123.5,2527C 2108.69,2533.98 2093.35,2535.31 2077.5,2531C 2061.24,2522.4 2045.24,2513.4 2029.5,2504C 2023.43,2499.7 2020.77,2493.87 2021.5,2486.5 Z"/></g>
<g><path style="opacity:1" fill="#51a0db" d="M 1192.5,2496.5 C 1194.93,2499.44 1197.6,2502.27 1200.5,2505C 1216.38,2514.78 1232.72,2523.78 1249.5,2532C 1262.73,2535.75 1275.73,2535.08 1288.5,2530C 1303.17,2521.67 1317.83,2513.33 1332.5,2505C 1335.02,2502.65 1337.35,2500.15 1339.5,2497.5C 1341.65,2504.71 1339.65,2510.54 1333.5,2515C 1316.95,2525.11 1299.95,2534.44 1282.5,2543C 1270.74,2545.26 1259.07,2544.93 1247.5,2542C 1231.24,2533.4 1215.24,2524.4 1199.5,2515C 1192.76,2510.37 1190.42,2504.2 1192.5,2496.5 Z"/></g>
<g><path style="opacity:1" fill="#51a0db" d="M 1852.5,2510.5 C 1856.01,2514.16 1860.01,2517.33 1864.5,2520C 1878.09,2527.27 1891.42,2534.93 1904.5,2543C 1918.79,2548.46 1933.12,2548.79 1947.5,2544C 1962.83,2535.33 1978.17,2526.67 1993.5,2518C 1996.67,2516.17 1999.17,2513.67 2001,2510.5C 2002.78,2517.83 2000.61,2523.67 1994.5,2528C 1978.82,2537.51 1962.82,2546.51 1946.5,2555C 1933.51,2559.63 1920.51,2559.63 1907.5,2555C 1890.57,2545.73 1873.91,2536.07 1857.5,2526C 1853.34,2521.69 1851.68,2516.53 1852.5,2510.5 Z"/></g>
<g><path style="opacity:1" fill="#52a0db" d="M 2290.5,2519.5 C 2292.64,2522.47 2295.31,2524.97 2298.5,2527C 2315.6,2537.1 2332.93,2546.77 2350.5,2556C 2364.36,2559.92 2377.69,2558.59 2390.5,2552C 2392.71,2550.13 2394.54,2547.96 2396,2545.5C 2398.59,2553.06 2396.42,2558.89 2389.5,2563C 2377.33,2568.64 2364.67,2569.98 2351.5,2567C 2333.21,2557.52 2315.21,2547.52 2297.5,2537C 2290.54,2532.92 2288.2,2527.09 2290.5,2519.5 Z"/></g>
<g><path style="opacity:1" fill="#52a0db" d="M 1680.5,2532.5 C 1682.27,2534.77 1684.27,2536.94 1686.5,2539C 1701,2547.08 1715.33,2555.41 1729.5,2564C 1746.32,2573.55 1763.32,2573.88 1780.5,2565C 1794.67,2556.41 1809,2548.08 1823.5,2540C 1826.31,2538.36 1828.64,2536.19 1830.5,2533.5C 1831.7,2534.56 1832.36,2535.89 1832.5,2537.5C 1831.77,2541.47 1830.1,2544.97 1827.5,2548C 1809.76,2558.73 1791.76,2569.07 1773.5,2579C 1761.82,2582.3 1750.15,2582.3 1738.5,2579C 1718.92,2568.97 1700.09,2557.8 1682,2545.5C 1679.57,2541.32 1679.07,2536.99 1680.5,2532.5 Z"/></g>
<g><path style="opacity:1" fill="#52a0db" d="M 1306.5,2562.5 C 1309.31,2566.14 1312.64,2569.3 1316.5,2572C 1329.83,2579.67 1343.17,2587.33 1356.5,2595C 1372.46,2600.98 1388.46,2600.98 1404.5,2595C 1417.83,2587.33 1431.17,2579.67 1444.5,2572C 1447.98,2569.69 1450.98,2566.85 1453.5,2563.5C 1455.75,2570.18 1454.08,2575.68 1448.5,2580C 1435,2588.25 1421.33,2596.25 1407.5,2604C 1391.89,2611.33 1375.89,2612.33 1359.5,2607C 1341.92,2597.96 1325.09,2587.8 1309,2576.5C 1305.56,2572.28 1304.72,2567.61 1306.5,2562.5 Z"/></g>
<g><path style="opacity:1" fill="#52a0db" d="M 2135.5,2551.5 C 2137.64,2554.47 2140.31,2556.97 2143.5,2559C 2157.33,2566.75 2171,2574.75 2184.5,2583C 2199.86,2589.59 2215.53,2590.26 2231.5,2585C 2246.17,2576.67 2260.83,2568.33 2275.5,2560C 2279,2557.83 2281.83,2555 2284,2551.5C 2285.54,2559.27 2283.04,2565.43 2276.5,2570C 2261.17,2578.67 2245.83,2587.33 2230.5,2596C 2216.82,2600.63 2203.15,2600.63 2189.5,2596C 2174.83,2587.67 2160.17,2579.33 2145.5,2571C 2137.3,2566.86 2133.97,2560.36 2135.5,2551.5 Z"/></g>
<g><path style="opacity:1" fill="#52a0db" d="M 1525.5,2567.5 C 1527.97,2570.8 1530.97,2573.64 1534.5,2576C 1547.17,2583.33 1559.83,2590.67 1572.5,2598C 1586.19,2604.64 1600.53,2606.31 1615.5,2603C 1632.95,2594.44 1649.95,2585.11 1666.5,2575C 1669.04,2572.8 1671.21,2570.3 1673,2567.5C 1675.14,2574.43 1673.3,2580.27 1667.5,2585C 1650.92,2595.12 1633.92,2604.46 1616.5,2613C 1604.05,2616.58 1591.71,2616.25 1579.5,2612C 1564.17,2603.33 1548.83,2594.67 1533.5,2586C 1529.91,2583.08 1527.08,2579.58 1525,2575.5C 1524.4,2572.78 1524.57,2570.11 1525.5,2567.5 Z"/></g>
<g><path style="opacity:1" fill="#52a0db" d="M 2403.5,2585.5 C 2405.96,2587.78 2408.63,2589.95 2411.5,2592C 2421.33,2597.41 2431,2603.08 2440.5,2609C 2449.59,2614.21 2458.92,2618.88 2468.5,2623C 2481.58,2625.19 2493.91,2623.19 2505.5,2617C 2510.88,2609.65 2512.72,2610.82 2511,2620.5C 2506.04,2628.4 2498.87,2632.9 2489.5,2634C 2476.63,2635.97 2464.63,2633.63 2453.5,2627C 2439.33,2618.41 2425,2610.08 2410.5,2602C 2404.46,2598.08 2402.12,2592.58 2403.5,2585.5 Z"/></g>
<g><path style="opacity:1" fill="#52a0db" d="M 1965.5,2575.5 C 1967.64,2578.47 1970.31,2580.97 1973.5,2583C 1988.66,2591.41 2003.66,2600.08 2018.5,2609C 2025.5,2612.88 2033,2614.38 2041,2613.5C 2048.17,2614.11 2055,2612.94 2061.5,2610C 2078,2600.92 2094.33,2591.59 2110.5,2582C 2117.47,2574.67 2119.3,2576.17 2116,2586.5C 2114.86,2588.61 2113.36,2590.44 2111.5,2592C 2095.5,2601.33 2079.5,2610.67 2063.5,2620C 2050.4,2625.1 2037.07,2625.76 2023.5,2622C 2006.5,2612.33 1989.5,2602.67 1972.5,2593C 1966.08,2588.67 1963.74,2582.84 1965.5,2575.5 Z"/></g>
<g><path style="opacity:1" fill="#2673ab" d="M 3274.5,3040.5 C 3273.08,3056.67 3267.25,3071 3257,3083.5C 3244.57,3097.27 3230.41,3108.77 3214.5,3118C 2916.17,3289.49 2618.17,3461.49 2320.5,3634C 2254.94,3665.84 2186.94,3672.51 2116.5,3654C 2104.7,3650.1 2093.36,3645.1 2082.5,3639C 1561.43,3337.6 1040.09,3036.6 518.5,2736C 502.615,2727.11 490.448,2714.61 482,2698.5C 479.35,2692.79 477.85,2686.79 477.5,2680.5C 477.333,2656.5 477.5,2632.5 478,2608.5C 480.074,2620.31 485.074,2630.65 493,2639.5C 504.77,2650.94 517.937,2660.44 532.5,2668C 1049.83,2966.67 1567.17,3265.33 2084.5,3564C 2096.94,3570.72 2109.94,3576.05 2123.5,3580C 2193.92,3596.43 2261.25,3588.1 2325.5,3555C 2622.57,3382.93 2919.91,3211.27 3217.5,3040C 3231.79,3031.39 3244.62,3020.89 3256,3008.5C 3265.51,2997.14 3271.51,2984.14 3274,2969.5C 3274.5,2993.16 3274.67,3016.83 3274.5,3040.5 Z"/></g>
<g><path style="opacity:1" fill="#52a0db" d="M 1793.5,2598.5 C 1796.29,2601.11 1799.29,2603.61 1802.5,2606C 1817,2614.08 1831.33,2622.41 1845.5,2631C 1856.58,2636.25 1868.25,2637.92 1880.5,2636C 1882.88,2635.49 1885.21,2634.82 1887.5,2634C 1905.83,2624.17 1923.83,2613.84 1941.5,2603C 1944.41,2597.17 1945.75,2597.34 1945.5,2603.5C 1945.57,2608.95 1943.23,2613.12 1938.5,2616C 1922,2625.08 1905.67,2634.41 1889.5,2644C 1877.25,2648.14 1864.91,2648.48 1852.5,2645C 1833.74,2634.57 1815.24,2623.73 1797,2612.5C 1793.92,2608.37 1792.76,2603.7 1793.5,2598.5 Z"/></g>
<g><path style="opacity:1" fill="#52a0dc" d="M 2249.5,2617.5 C 2252.3,2619.8 2254.96,2622.3 2257.5,2625C 2270.17,2632.33 2282.83,2639.67 2295.5,2647C 2311.22,2655.4 2327.55,2656.74 2344.5,2651C 2359.83,2642.33 2375.17,2633.67 2390.5,2625C 2393.02,2622.65 2395.35,2620.15 2397.5,2617.5C 2399.65,2624.71 2397.65,2630.54 2391.5,2635C 2376.34,2643.41 2361.34,2652.08 2346.5,2661C 2330.66,2667.32 2314.99,2666.99 2299.5,2660C 2285.33,2651.41 2271,2643.08 2256.5,2635C 2250.55,2630.67 2248.22,2624.84 2249.5,2617.5 Z"/></g>
<g><path style="opacity:1" fill="#52a0db" d="M 2079.5,2641.5 C 2082.16,2645.02 2085.5,2647.85 2089.5,2650C 2102.83,2657.67 2116.17,2665.33 2129.5,2673C 2143.22,2680.14 2157.55,2681.47 2172.5,2677C 2189.17,2667.67 2205.83,2658.33 2222.5,2649C 2225.67,2647.17 2228.17,2644.67 2230,2641.5C 2232,2645.17 2232,2648.83 2230,2652.5C 2227.83,2654.67 2225.67,2656.83 2223.5,2659C 2209,2667.08 2194.67,2675.41 2180.5,2684C 2165.94,2691.38 2150.94,2692.38 2135.5,2687C 2120,2677.75 2104.33,2668.75 2088.5,2660C 2080.74,2655.98 2077.74,2649.81 2079.5,2641.5 Z"/></g>
<g><path style="opacity:1" fill="#53a0dc" d="M 1639.5,2633.5 C 1642.36,2637.52 1646.02,2640.69 1650.5,2643C 1663.83,2650.67 1677.17,2658.33 1690.5,2666C 1705.82,2671.95 1721.16,2671.95 1736.5,2666C 1750.5,2658 1764.5,2650 1778.5,2642C 1782,2639.83 1784.83,2637 1787,2633.5C 1787.85,2637.63 1787.52,2641.63 1786,2645.5C 1783.83,2647.67 1781.67,2649.83 1779.5,2652C 1765.09,2660.73 1750.42,2669.07 1735.5,2677C 1721.6,2682.47 1707.6,2682.8 1693.5,2678C 1678.83,2669.67 1664.17,2661.33 1649.5,2653C 1643.26,2649.61 1639.6,2644.44 1638.5,2637.5C 1638.62,2636.08 1638.96,2634.74 1639.5,2633.5 Z"/></g>
<g><path style="opacity:1" fill="#52a0db" d="M 1907.5,2664.5 C 1910.71,2667.79 1914.37,2670.62 1918.5,2673C 1931.83,2680.67 1945.17,2688.33 1958.5,2696C 1973.02,2703.54 1988.02,2704.54 2003.5,2699C 2019.67,2689.41 2036,2680.08 2052.5,2671C 2054.35,2668.98 2056.35,2667.15 2058.5,2665.5C 2060.45,2671.79 2058.78,2676.95 2053.5,2681C 2036.66,2690.92 2019.66,2700.59 2002.5,2710C 1989.01,2714.95 1975.68,2714.62 1962.5,2709C 1947,2699.75 1931.33,2690.75 1915.5,2682C 1912.63,2679.46 1910.13,2676.63 1908,2673.5C 1907.5,2670.52 1907.34,2667.52 1907.5,2664.5 Z"/></g>
<g><path style="opacity:1" fill="#52a0db" d="M 2517.5,2651.5 C 2537.25,2664.89 2557.92,2677.05 2579.5,2688C 2592.63,2690.86 2605.3,2689.53 2617.5,2684C 2620,2682.17 2622.17,2680 2624,2677.5C 2626.42,2684.21 2624.59,2689.71 2618.5,2694C 2606.52,2700.54 2593.86,2702.21 2580.5,2699C 2561.54,2689.19 2542.88,2678.86 2524.5,2668C 2518.46,2664.08 2516.12,2658.58 2517.5,2651.5 Z"/></g>
<g><path style="opacity:1" fill="#52a0db" d="M 2363.5,2682.5 C 2366.31,2686.14 2369.64,2689.3 2373.5,2692C 2386.83,2699.67 2400.17,2707.33 2413.5,2715C 2429.01,2721.85 2444.68,2722.18 2460.5,2716C 2475.66,2707.59 2490.66,2698.92 2505.5,2690C 2507.68,2687.98 2509.68,2685.82 2511.5,2683.5C 2513.11,2688.61 2512.28,2693.27 2509,2697.5C 2493.08,2708.21 2476.58,2718.05 2459.5,2727C 2445.97,2732.6 2432.3,2732.93 2418.5,2728C 2400.25,2718.63 2382.75,2708.13 2366,2696.5C 2362.68,2692.23 2361.84,2687.56 2363.5,2682.5 Z"/></g>
<g><path style="opacity:1" fill="#52a0db" d="M 1753.5,2698.5 C 1755.93,2701.44 1758.6,2704.27 1761.5,2707C 1774.17,2714.33 1786.83,2721.67 1799.5,2729C 1815.67,2737.77 1832.34,2738.77 1849.5,2732C 1863.17,2724.33 1876.83,2716.67 1890.5,2709C 1894.55,2706.4 1898.05,2703.23 1901,2699.5C 1902.01,2704.11 1901.34,2708.44 1899,2712.5C 1895.28,2716.27 1891.12,2719.44 1886.5,2722C 1874.67,2728.41 1863,2735.08 1851.5,2742C 1835.51,2747.94 1819.51,2747.94 1803.5,2742C 1790.42,2733.93 1777.09,2726.27 1763.5,2719C 1754.88,2714.6 1751.55,2707.76 1753.5,2698.5 Z"/></g>
<g><path style="opacity:1" fill="#52a0db" d="M 2193.5,2707.5 C 2197.05,2711.21 2201.05,2714.38 2205.5,2717C 2219.5,2725 2233.5,2733 2247.5,2741C 2261,2746.66 2274.66,2746.99 2288.5,2742C 2305,2732.92 2321.33,2723.59 2337.5,2714C 2340,2712.17 2342.17,2710 2344,2707.5C 2346.2,2714.22 2344.37,2719.72 2338.5,2724C 2324.67,2731.75 2311,2739.75 2297.5,2748C 2282.6,2757.08 2266.93,2758.75 2250.5,2753C 2233.34,2743.59 2216.34,2733.92 2199.5,2724C 2193.63,2719.78 2191.63,2714.28 2193.5,2707.5 Z"/></g>
<g><path style="opacity:1" fill="#52a0db" d="M 2631.5,2717.5 C 2651.5,2731.17 2672.5,2743.34 2694.5,2754C 2707.81,2756.92 2720.48,2755.25 2732.5,2749C 2734.33,2747.17 2736.17,2745.33 2738,2743.5C 2740.37,2752.25 2737.21,2758.42 2728.5,2762C 2713.99,2768.22 2699.66,2767.88 2685.5,2761C 2669.5,2751.67 2653.5,2742.33 2637.5,2733C 2632.46,2729.07 2630.46,2723.9 2631.5,2717.5 Z"/></g>
<g><path style="opacity:1" fill="#52a0db" d="M 2021.5,2730.5 C 2023.96,2732.78 2026.63,2734.95 2029.5,2737C 2044,2745.08 2058.33,2753.41 2072.5,2762C 2086.69,2769.47 2101.35,2770.47 2116.5,2765C 2132.5,2756 2148.5,2747 2164.5,2738C 2167.65,2736.02 2170.31,2733.52 2172.5,2730.5C 2174.24,2735.66 2173.41,2740.32 2170,2744.5C 2153.08,2755.04 2135.91,2765.21 2118.5,2775C 2105.6,2780.46 2092.6,2780.79 2079.5,2776C 2062.34,2766.59 2045.34,2756.92 2028.5,2747C 2022.46,2743.08 2020.12,2737.58 2021.5,2730.5 Z"/></g>
<g><path style="opacity:1" fill="#52a0db" d="M 2477.5,2748.5 C 2479.6,2751.1 2481.93,2753.6 2484.5,2756C 2499,2764.08 2513.33,2772.41 2527.5,2781C 2542.68,2787.86 2558.01,2788.19 2573.5,2782C 2588.17,2773.67 2602.83,2765.33 2617.5,2757C 2620.67,2754.99 2623.34,2752.49 2625.5,2749.5C 2626.75,2753.21 2626.58,2756.88 2625,2760.5C 2622.83,2762.67 2620.67,2764.83 2618.5,2767C 2601.92,2777.12 2584.92,2786.46 2567.5,2795C 2554.94,2797.54 2542.61,2796.87 2530.5,2793C 2515.83,2784.67 2501.17,2776.33 2486.5,2768C 2478.98,2763.47 2475.98,2756.97 2477.5,2748.5 Z"/></g>
<g><path style="opacity:1" fill="#52a0db" d="M 1419.5,2628.5 C 1422.22,2630.72 1424.89,2633.22 1427.5,2636C 1670.83,2776.33 1914.17,2916.67 2157.5,3057C 2174.42,3062.65 2190.75,3061.32 2206.5,3053C 2218.24,3045.6 2230.24,3038.6 2242.5,3032C 2246,3029.83 2248.83,3027 2251,3023.5C 2253.17,3031.36 2250.67,3037.53 2243.5,3042C 2227.62,3051.78 2211.28,3060.78 2194.5,3069C 2182.39,3071.33 2170.39,3070.99 2158.5,3068C 1915.34,2928.25 1672.34,2788.25 1429.5,2648C 1422.3,2643.43 1418.97,2636.93 1419.5,2628.5 Z"/></g>
<g><path style="opacity:1" fill="#52a0db" d="M 1867.5,2764.5 C 1869.93,2767.44 1872.6,2770.27 1875.5,2773C 1890.17,2781.33 1904.83,2789.67 1919.5,2798C 1934.18,2802.64 1948.84,2802.64 1963.5,2798C 1977.5,2790 1991.5,2782 2005.5,2774C 2008.98,2771.69 2011.98,2768.85 2014.5,2765.5C 2015.89,2770.03 2015.39,2774.36 2013,2778.5C 1996.91,2789.8 1980.08,2799.96 1962.5,2809C 1948.57,2813.64 1934.57,2813.64 1920.5,2809C 1905.17,2800.33 1889.83,2791.67 1874.5,2783C 1867.89,2778.34 1865.56,2772.17 1867.5,2764.5 Z"/></g>
<g><path style="opacity:1" fill="#52a0db" d="M 2307.5,2772.5 C 2309.27,2774.77 2311.27,2776.94 2313.5,2779C 2329.5,2788.33 2345.5,2797.67 2361.5,2807C 2378.87,2814.09 2395.53,2812.76 2411.5,2803C 2424.17,2795.67 2436.83,2788.33 2449.5,2781C 2452.63,2778.87 2455.46,2776.37 2458,2773.5C 2459.59,2779.61 2458.09,2784.77 2453.5,2789C 2440.34,2796.41 2427.34,2804.08 2414.5,2812C 2398.95,2821.9 2382.28,2824.24 2364.5,2819C 2348.33,2809.41 2332,2800.08 2315.5,2791C 2307.99,2786.83 2305.33,2780.66 2307.5,2772.5 Z"/></g>
<g><path style="opacity:1" fill="#51a0db" d="M 2745.5,2782.5 C 2747.96,2784.46 2750.3,2786.63 2752.5,2789C 2770,2799.25 2787.67,2809.25 2805.5,2819C 2818.91,2823.02 2831.91,2822.02 2844.5,2816C 2847.31,2814.36 2849.64,2812.19 2851.5,2809.5C 2854.24,2814.31 2853.57,2818.64 2849.5,2822.5C 2841.27,2829.27 2831.77,2832.27 2821,2831.5C 2816.1,2831.54 2811.27,2831.04 2806.5,2830C 2785.76,2819.55 2765.92,2807.72 2747,2794.5C 2744.6,2790.69 2744.1,2786.69 2745.5,2782.5 Z"/></g>
<g><path style="opacity:1" fill="#52a0db" d="M 2135.5,2796.5 C 2154.58,2809.55 2174.58,2821.39 2195.5,2832C 2208.89,2835.97 2221.89,2834.97 2234.5,2829C 2249.34,2820.08 2264.34,2811.41 2279.5,2803C 2282.33,2801.5 2284.5,2799.33 2286,2796.5C 2287.84,2800.07 2287.84,2803.74 2286,2807.5C 2283.46,2810.37 2280.63,2812.87 2277.5,2815C 2262.17,2823.67 2246.83,2832.33 2231.5,2841C 2218.16,2845.63 2204.83,2845.63 2191.5,2841C 2175.33,2831.41 2159,2822.08 2142.5,2813C 2136.64,2808.98 2134.3,2803.48 2135.5,2796.5 Z"/></g>
<g><path style="opacity:1" fill="#53a1db" d="M 2591.5,2814.5 C 2593.97,2817.8 2596.97,2820.64 2600.5,2823C 2612.5,2830 2624.5,2837 2636.5,2844C 2652.87,2852.49 2669.87,2853.82 2687.5,2848C 2703.5,2838.67 2719.5,2829.33 2735.5,2820C 2737.99,2814.38 2739.66,2814.38 2740.5,2820C 2739.89,2825.56 2737.22,2829.89 2732.5,2833C 2716.3,2842.27 2699.96,2851.27 2683.5,2860C 2671.48,2863.27 2659.48,2863.27 2647.5,2860C 2630.34,2850.59 2613.34,2840.92 2596.5,2831C 2591.44,2826.42 2589.78,2820.92 2591.5,2814.5 Z"/></g>
<g><path style="opacity:1" fill="#52a0db" d="M 1981.5,2830.5 C 1984.31,2834.14 1987.64,2837.3 1991.5,2840C 2004.83,2847.67 2018.17,2855.33 2031.5,2863C 2046.35,2868.63 2061.35,2868.96 2076.5,2864C 2092.33,2855.25 2108,2846.25 2123.5,2837C 2125.75,2835.25 2127.42,2833.09 2128.5,2830.5C 2130.52,2836.84 2129.19,2842.34 2124.5,2847C 2107.78,2857.69 2090.45,2867.36 2072.5,2876C 2059.71,2879.62 2047.05,2879.29 2034.5,2875C 2019.83,2866.67 2005.17,2858.33 1990.5,2850C 1982.97,2845.45 1979.97,2838.95 1981.5,2830.5 Z"/></g>
<g><path style="opacity:1" fill="#52a0db" d="M 2421.5,2838.5 C 2423.27,2840.77 2425.27,2842.94 2427.5,2845C 2445.21,2855.52 2463.21,2865.52 2481.5,2875C 2495.39,2879.16 2508.72,2877.83 2521.5,2871C 2535.67,2862.41 2550,2854.08 2564.5,2846C 2567.31,2844.36 2569.64,2842.19 2571.5,2839.5C 2573.36,2844.96 2572.36,2849.79 2568.5,2854C 2551.17,2864 2533.83,2874 2516.5,2884C 2503.17,2888.67 2489.83,2888.67 2476.5,2884C 2459.34,2874.25 2442.34,2864.25 2425.5,2854C 2420.98,2849.61 2419.65,2844.45 2421.5,2838.5 Z"/></g>
<g><path style="opacity:1" fill="#52a0db" d="M 2859.5,2848.5 C 2861.63,2850.13 2863.63,2851.96 2865.5,2854C 2882.83,2864 2900.17,2874 2917.5,2884C 2933.34,2889.76 2948.34,2888.09 2962.5,2879C 2963.16,2877.51 2964.16,2876.35 2965.5,2875.5C 2966.65,2878.45 2966.82,2881.45 2966,2884.5C 2960.88,2892 2953.71,2896.17 2944.5,2897C 2935.67,2898.08 2927.01,2897.41 2918.5,2895C 2900.24,2885.07 2882.24,2874.73 2864.5,2864C 2859.76,2859.72 2858.1,2854.55 2859.5,2848.5 Z"/></g>
<g><path style="opacity:1" fill="#52a0db" d="M 2249.5,2861.5 C 2252.67,2864.5 2256,2867.33 2259.5,2870C 2273.5,2878 2287.5,2886 2301.5,2894C 2308.55,2898.41 2316.22,2900.24 2324.5,2899.5C 2330.99,2899.75 2337.32,2898.92 2343.5,2897C 2359.5,2888 2375.5,2879 2391.5,2870C 2394.63,2867.87 2397.46,2865.37 2400,2862.5C 2402.52,2868.67 2401.02,2873.84 2395.5,2878C 2378.63,2887.93 2361.63,2897.6 2344.5,2907C 2330.72,2911.81 2317.05,2911.48 2303.5,2906C 2288.66,2897.08 2273.66,2888.41 2258.5,2880C 2251.36,2875.89 2248.36,2869.72 2249.5,2861.5 Z"/></g>
<g><path style="opacity:1" fill="#5e95c0" d="M 3277.5,2895.5 C 3274.66,2897.92 3271.33,2899.25 3267.5,2899.5C 3270.55,2897.65 3273.88,2896.31 3277.5,2895.5 Z"/></g>
<g><path style="opacity:1" fill="#51a0db" d="M 2705.5,2880.5 C 2707.97,2883.8 2710.97,2886.64 2714.5,2889C 2727.83,2896.67 2741.17,2904.33 2754.5,2912C 2765.61,2917.2 2777.28,2918.87 2789.5,2917C 2793.38,2916.74 2797.04,2915.74 2800.5,2914C 2816.33,2905.25 2832,2896.25 2847.5,2887C 2854.51,2878.42 2856.34,2879.92 2853,2891.5C 2851.54,2893.96 2849.71,2896.13 2847.5,2898C 2831.82,2907.51 2815.82,2916.51 2799.5,2925C 2786.17,2929.62 2772.84,2929.62 2759.5,2925C 2744.17,2916.33 2728.83,2907.67 2713.5,2899C 2709.91,2896.08 2707.08,2892.58 2705,2888.5C 2704.28,2885.74 2704.44,2883.07 2705.5,2880.5 Z"/></g>
<g><path style="opacity:1" fill="#52a0db" d="M 2094.5,2896.5 C 2098.31,2900.46 2102.65,2903.96 2107.5,2907C 2121.17,2914.67 2134.83,2922.33 2148.5,2930C 2163.28,2934.9 2177.95,2934.57 2192.5,2929C 2206.5,2921 2220.5,2913 2234.5,2905C 2237.67,2902.99 2240.34,2900.49 2242.5,2897.5C 2244.25,2904.85 2241.91,2910.69 2235.5,2915C 2225,2920.75 2214.67,2926.75 2204.5,2933C 2186.36,2945.34 2167.03,2947.67 2146.5,2940C 2131.17,2931 2115.83,2922 2100.5,2913C 2095.35,2908.67 2093.35,2903.17 2094.5,2896.5 Z"/></g>
<g><path style="opacity:1" fill="#52a0dc" d="M 2534.5,2904.5 C 2537.29,2907.11 2540.29,2909.61 2543.5,2912C 2559.17,2921 2574.83,2930 2590.5,2939C 2603.01,2943.32 2615.68,2943.66 2628.5,2940C 2646.83,2930.17 2664.83,2919.84 2682.5,2909C 2685.41,2903.17 2686.75,2903.34 2686.5,2909.5C 2686.57,2914.95 2684.23,2919.12 2679.5,2922C 2663,2931.08 2646.67,2940.41 2630.5,2950C 2618.27,2954.24 2605.93,2954.57 2593.5,2951C 2574.74,2940.57 2556.24,2929.73 2538,2918.5C 2534.92,2914.37 2533.76,2909.7 2534.5,2904.5 Z"/></g>
<g><path style="opacity:1" fill="#52a0db" d="M 2975.5,2915.5 C 2980.21,2920.04 2985.54,2923.87 2991.5,2927C 3004.49,2933.83 3017.16,2941.16 3029.5,2949C 3045.29,2956.42 3060.96,2956.08 3076.5,2948C 3078.33,2946.17 3080.17,2944.33 3082,2942.5C 3084.17,2948.01 3083.01,2952.84 3078.5,2957C 3066.8,2964.09 3054.14,2966.43 3040.5,2964C 3019.27,2953.77 2998.77,2942.27 2979,2929.5C 2975.92,2925.37 2974.76,2920.7 2975.5,2915.5 Z"/></g>
<g><path style="opacity:1" fill="#52a0db" d="M 2363.5,2927.5 C 2366.33,2930.17 2369.33,2932.67 2372.5,2935C 2387.66,2943.41 2402.66,2952.08 2417.5,2961C 2431.31,2966.65 2445.31,2966.98 2459.5,2962C 2476.17,2952.33 2492.83,2942.67 2509.5,2933C 2514.88,2925.65 2516.72,2926.82 2515,2936.5C 2513.62,2938.75 2512.12,2940.92 2510.5,2943C 2492.62,2954.11 2474.29,2964.44 2455.5,2974C 2444.49,2977.33 2433.49,2977.33 2422.5,2974C 2402.92,2963.97 2384.09,2952.8 2366,2940.5C 2363.83,2936.45 2362.99,2932.12 2363.5,2927.5 Z"/></g>
<g><path style="opacity:1" fill="#52a0db" d="M 2648.5,2970.5 C 2651.71,2973.79 2655.37,2976.62 2659.5,2979C 2674.66,2987.41 2689.66,2996.08 2704.5,3005C 2718.63,3009.89 2732.63,3009.55 2746.5,3004C 2762,2994.75 2777.67,2985.75 2793.5,2977C 2795.35,2974.98 2797.35,2973.15 2799.5,2971.5C 2801.45,2977.79 2799.78,2982.95 2794.5,2987C 2782.24,2993.6 2770.24,3000.6 2758.5,3008C 2751.89,3012.14 2744.89,3015.47 2737.5,3018C 2725.81,3020.71 2714.48,3019.71 2703.5,3015C 2688.66,3006.08 2673.66,2997.41 2658.5,2989C 2655.37,2986.87 2652.54,2984.37 2650,2981.5C 2648.66,2977.97 2648.16,2974.31 2648.5,2970.5 Z"/></g>
<g><path style="opacity:1" fill="#52a0db" d="M 2208.5,2962.5 C 2210.91,2964.37 2213.24,2966.53 2215.5,2969C 2230,2977.08 2244.33,2985.41 2258.5,2994C 2276.51,3001.93 2294.17,3001.26 2311.5,2992C 2324.17,2984.67 2336.83,2977.33 2349.5,2970C 2352.02,2967.65 2354.35,2965.15 2356.5,2962.5C 2358.65,2969.71 2356.65,2975.54 2350.5,2980C 2338.5,2987 2326.5,2994 2314.5,3001C 2298.37,3009.98 2281.37,3011.98 2263.5,3007C 2246.51,2997.84 2229.84,2988.17 2213.5,2978C 2209.08,2973.78 2207.41,2968.61 2208.5,2962.5 Z"/></g>
<g><path style="opacity:1" fill="#51a0db" d="M 2821.5,2947.5 C 2823.97,2950.8 2826.97,2953.64 2830.5,2956C 2861.42,2973.27 2892.09,2990.93 2922.5,3009C 2939.33,3016.6 2955.99,3016.27 2972.5,3008C 2985.17,3000.67 2997.83,2993.33 3010.5,2986C 3014.33,2983.5 3017.5,2980.33 3020,2976.5C 3022.42,2983.58 3020.59,2989.41 3014.5,2994C 2999,3003.25 2983.33,3012.25 2967.5,3021C 2951.03,3026.51 2935.03,3025.51 2919.5,3018C 2889.17,3000.33 2858.83,2982.67 2828.5,2965C 2822.16,2960.8 2819.82,2954.97 2821.5,2947.5 Z"/></g>
<g><path style="opacity:1" fill="#52a0db" d="M 2477.5,2993.5 C 2479.58,2995.08 2481.58,2996.91 2483.5,2999C 2501.91,3009.87 2520.58,3020.2 2539.5,3030C 2553.97,3033.4 2567.64,3031.4 2580.5,3024C 2595.17,3015.33 2609.83,3006.67 2624.5,2998C 2625.79,2996.59 2626.95,2995.09 2628,2993.5C 2630.04,2997.6 2629.71,3001.6 2627,3005.5C 2625.17,3007.33 2623.33,3009.17 2621.5,3011C 2605.67,3019.75 2590,3028.75 2574.5,3038C 2561.29,3043.56 2547.96,3043.9 2534.5,3039C 2515.92,3028.8 2497.75,3017.96 2480,3006.5C 2476.78,3002.53 2475.95,2998.2 2477.5,2993.5 Z"/></g>
<g><path style="opacity:1" fill="#52a0db" d="M 2322.5,3028.5 C 2325.27,3031.08 2328.27,3033.58 2331.5,3036C 2346.51,3045.17 2361.84,3053.84 2377.5,3062C 2392.43,3067.06 2407.09,3066.39 2421.5,3060C 2434.58,3051.93 2447.91,3044.27 2461.5,3037C 2465,3034.83 2467.83,3032 2470,3028.5C 2472.27,3034.85 2470.77,3040.35 2465.5,3045C 2448.46,3055.19 2431.12,3064.85 2413.5,3074C 2399.83,3076.78 2386.5,3075.78 2373.5,3071C 2360.17,3063.33 2346.83,3055.67 2333.5,3048C 2325.53,3043.89 2321.86,3037.39 2322.5,3028.5 Z"/></g>
<g><path style="opacity:1" fill="#52a0db" d="M 2765.5,3037.5 C 2767.31,3040.14 2769.64,3042.31 2772.5,3044C 2790.21,3054.52 2808.21,3064.52 2826.5,3074C 2841.32,3077.5 2855.32,3075.5 2868.5,3068C 2883.17,3059.33 2897.83,3050.67 2912.5,3042C 2913.79,3040.59 2914.95,3039.09 2916,3037.5C 2918.28,3044.8 2916.12,3050.64 2909.5,3055C 2893.67,3063.75 2878,3072.75 2862.5,3082C 2848.14,3087.97 2833.81,3087.97 2819.5,3082C 2804.66,3073.08 2789.66,3064.41 2774.5,3056C 2766.74,3051.98 2763.74,3045.81 2765.5,3037.5 Z"/></g>
<g><path style="opacity:1" fill="#51a0db" d="M 2217.5,3088.5 C 2220.31,3092.14 2223.64,3095.3 2227.5,3098C 2240.49,3104.83 2253.16,3112.16 2265.5,3120C 2280.39,3127.41 2295.72,3128.41 2311.5,3123C 2328,3113.92 2344.33,3104.59 2360.5,3095C 2361.88,3093.07 2363.38,3091.24 2365,3089.5C 2367.25,3096.75 2365.08,3102.58 2358.5,3107C 2341.92,3117.12 2324.92,3126.46 2307.5,3135C 2294.98,3137.45 2282.65,3136.78 2270.5,3133C 2255.83,3124.67 2241.17,3116.33 2226.5,3108C 2219.06,3103.61 2216.06,3097.11 2217.5,3088.5 Z"/></g>
<g><path style="opacity:1" fill="#52a0db" d="M 2436.5,3094.5 C 2439.37,3096.98 2442.37,3099.48 2445.5,3102C 2460.17,3110.33 2474.83,3118.67 2489.5,3127C 2503.81,3131.61 2518.14,3131.61 2532.5,3127C 2547.17,3118.67 2561.83,3110.33 2576.5,3102C 2579.67,3100.17 2582.17,3097.67 2584,3094.5C 2586.25,3101.75 2584.08,3107.58 2577.5,3112C 2561.76,3121.4 2545.76,3130.4 2529.5,3139C 2516.37,3142.66 2503.37,3142.33 2490.5,3138C 2475.17,3129.33 2459.83,3120.67 2444.5,3112C 2438.43,3107.7 2435.77,3101.87 2436.5,3094.5 Z"/></g>
<g><path style="opacity:1" fill="#52a0db" d="M 2591.5,3058.5 C 2594.36,3062.52 2598.02,3065.69 2602.5,3068C 2639.66,3089.08 2676.66,3110.41 2713.5,3132C 2727.33,3137.66 2741.33,3137.99 2755.5,3133C 2774.5,3122.84 2792.83,3111.67 2810.5,3099.5C 2812.45,3106.78 2810.11,3112.28 2803.5,3116C 2787.33,3125.59 2771,3134.92 2754.5,3144C 2739.37,3149.5 2724.7,3148.5 2710.5,3141C 2674.33,3119.75 2638,3098.75 2601.5,3078C 2593.22,3073.95 2589.89,3067.45 2591.5,3058.5 Z"/></g>
<g><path style="opacity:1" fill="#52a0db" d="M 2331.5,3154.5 C 2333.97,3157.8 2336.97,3160.64 2340.5,3163C 2355,3171.08 2369.33,3179.41 2383.5,3188C 2398.17,3192.67 2412.83,3192.67 2427.5,3188C 2442.66,3179.59 2457.66,3170.92 2472.5,3162C 2475.04,3159.8 2477.21,3157.3 2479,3154.5C 2480.94,3162.12 2478.77,3168.29 2472.5,3173C 2457.17,3181.67 2441.83,3190.33 2426.5,3199C 2411.69,3203.95 2397.02,3203.62 2382.5,3198C 2367.17,3189 2351.83,3180 2336.5,3171C 2332.01,3166.43 2330.35,3160.93 2331.5,3154.5 Z"/></g>
<g><path style="opacity:1" fill="#52a0db" d="M 2553.5,3160.5 C 2557.02,3165.18 2561.35,3169.02 2566.5,3172C 2577.66,3178.08 2588.66,3184.41 2599.5,3191C 2615.71,3199.75 2632.38,3200.75 2649.5,3194C 2664.17,3185.67 2678.83,3177.33 2693.5,3169C 2696.02,3166.65 2698.35,3164.15 2700.5,3161.5C 2702.65,3168.71 2700.65,3174.54 2694.5,3179C 2678.62,3188.78 2662.28,3197.78 2645.5,3206C 2633.17,3209.33 2620.83,3209.33 2608.5,3206C 2594.01,3198.25 2579.67,3190.25 2565.5,3182C 2561.54,3179.77 2558.04,3176.93 2555,3173.5C 2552.44,3169.36 2551.94,3165.03 2553.5,3160.5 Z"/></g>
<g><path style="opacity:1" fill="#52a0db" d="M 2447.5,3222.5 C 2464.71,3235.12 2483.04,3246.29 2502.5,3256C 2515.46,3259.25 2528.46,3259.25 2541.5,3256C 2558.09,3247.07 2574.42,3237.73 2590.5,3228C 2592.29,3226.22 2593.96,3224.39 2595.5,3222.5C 2596.97,3226.74 2596.47,3230.74 2594,3234.5C 2591.83,3236.67 2589.67,3238.83 2587.5,3241C 2571.09,3250.54 2554.42,3259.54 2537.5,3268C 2524.16,3270.77 2511.16,3269.77 2498.5,3265C 2485.17,3257.33 2471.83,3249.67 2458.5,3242C 2450.53,3237.89 2446.86,3231.39 2447.5,3222.5 Z"/></g>
</svg>
